<?xml version="1.0" encoding="UTF-8"?>
<svg xmlns="http://www.w3.org/2000/svg">
  <rect fill-opacity="0.01" stroke="rgb(200,200,200)" stroke-width="2" x="25" y="25" width="800" height="400" />
  <rect fill-opacity="0.2" fill="rgb(200,100,150)" stroke="rgb(55,55,55)" stroke-width="2" x="20" y="20" width="800" height="400" />
  <text x="0" y="0" fill="rgb(0,0,255)" font-size="40">SVG Demo</text>
  <rect fill-opacity="0" x="0" y="0" width="200" height="50" stroke="rgb(255,0,0)" stroke-width="2" />
  <text x="400" y="400" fill="rgb(255,0,255)" font-size="30">Nguyen Van A</text>
  <circle cx="200" cy="300" r="100" fill="rgb(255, 255, 0)" stroke="rgb(0, 255, 255)" stroke-width="10" stroke-opacity="0.7" fill-opacity="0.5" />
  <polyline stroke="rgb(255, 0, 0)" stroke-width="2" stroke-opacity="0.7" fill="rgb(0, 255, 255)" fill-opacity="0.5" points="5,37 15,37 15,32 25,32 25,37 35,37 35,25 45,25 45,37 55,37 55,17 65,17 65,37 75,37 75,10 85,10 85,37 95,37 95,2 105,2 105,37 115,37" />
  <ellipse cx="500" cy="100" rx="100" ry="50" stroke="rgb(255, 255, 0)" stroke-width="3" fill="rgb(0, 255, 0)" stroke-opacity="0.7" fill-opacity="0.5" />
  <line x1="10" y1="30" x2="30" y2="10" stroke="rgb(0, 0, 255)" stroke-width="5" stroke-opacity="0.7" />
  <line x1="30" y1="30" x2="50" y2="10" stroke="rgb(0, 0, 255)" stroke-width="10" stroke-opacity="0.8" />
  <line x1="50" y1="30" x2="70" y2="10" stroke="rgb(0, 0, 255)" stroke-width="15" stroke-opacity="0.9" />
  <line x1="70" y1="30" x2="90" y2="10" stroke="rgb(0, 0, 255)" stroke-width="20" stroke-opacity="0.9" />
  <line x1="90" y1="30" x2="110" y2="10" stroke="rgb(0, 0, 255)" stroke-width="25" stroke-opacity="1.0" />
  <polygon fill="rgb(153, 204, 255)" fill-opacity="0.5" stroke-width="10" stroke="rgb(255, 0, 102)" stroke-opacity="0.7" points="850,75 958,137 958,262 850,325 742,262 742,137" />
  <polygon fill="rgb(255, 255, 0)" fill-opacity="0.6" stroke-width="10" stroke="rgb(255, 0, 0)" stroke-opacity="0.7" points="350,75 379,161 469,161 397,215 423,301 350,250 277,301 303,215 231,161 321,161" />
  <polyline points="0,40 40,40 40,80 80,80 80,120 120,120 120,140" fill-opacity="0.5" />
</svg>
